HIERARCHY
ROOT Hips
{
	OFFSET -351.999878 -572.954773 89.312325
	CHANNELS 6 Xposition Yposition Zposition Zrotation Yrotation Xrotation
	JOINT Spine
	{
		OFFSET 0.000000 2.080078 8.814247
		CHANNELS 6 Xposition Yposition Zposition Zrotation Yrotation Xrotation
		JOINT Spine1
		{
			OFFSET 0.000000 0.000000 8.844139
			CHANNELS 6 Xposition Yposition Zposition Zrotation Yrotation Xrotation
			JOINT Spine2
			{
				OFFSET 0.000000 0.000000 11.682266
				CHANNELS 6 Xposition Yposition Zposition Zrotation Yrotation Xrotation
				JOINT Spine3
				{
					OFFSET 0.000000 0.000000 11.746696
					CHANNELS 6 Xposition Yposition Zposition Zrotation Yrotation Xrotation
					JOINT Neck
					{
						OFFSET 0.000000 0.000000 17.658264
						CHANNELS 6 Xposition Yposition Zposition Zrotation Yrotation Xrotation
						JOINT Neck1
						{
							OFFSET 0.000000 0.000000 5.101517
							CHANNELS 6 Xposition Yposition Zposition Zrotation Yrotation Xrotation
							JOINT Head
							{
								OFFSET 0.000000 0.000000 5.101517
								CHANNELS 6 Xposition Yposition Zposition Zrotation Yrotation Xrotation
								JOINT HeadEnd
								{
									OFFSET 0.000000 0.000000 11.655090
									CHANNELS 6 Xposition Yposition Zposition Zrotation Yrotation Xrotation
									End Site
									{
										OFFSET 0.000000 0.000000 0.100006
									}
								}
							}
						}
					}
					JOINT RightShoulder
					{
						OFFSET -2.625397 0.000000 11.175217
						CHANNELS 6 Xposition Yposition Zposition Zrotation Yrotation Xrotation
						JOINT RightArm
						{
							OFFSET 0.000000 0.000000 10.434708
							CHANNELS 6 Xposition Yposition Zposition Zrotation Yrotation Xrotation
							JOINT RightForeArm
							{
								OFFSET 0.000000 0.000000 29.628418
								CHANNELS 6 Xposition Yposition Zposition Zrotation Yrotation Xrotation
								JOINT RightHand
								{
									OFFSET 0.000000 0.000000 22.857605
									CHANNELS 6 Xposition Yposition Zposition Zrotation Yrotation Xrotation
									JOINT RightHandThumb1
									{
										OFFSET -2.867310 -2.944275 3.959564
										CHANNELS 6 Xposition Yposition Zposition Zrotation Yrotation Xrotation
										JOINT RightHandThumb2
										{
											OFFSET 0.000000 0.000000 3.350403
											CHANNELS 6 Xposition Yposition Zposition Zrotation Yrotation Xrotation
											JOINT RightHandThumb3
											{
												OFFSET 0.000000 0.000000 3.756516
												CHANNELS 6 Xposition Yposition Zposition Zrotation Yrotation Xrotation
												JOINT RightHandThumb4
												{
													OFFSET 0.000000 0.000000 3.147339
													CHANNELS 6 Xposition Yposition Zposition Zrotation Yrotation Xrotation
													End Site
													{
														OFFSET 0.000000 0.000000 0.100006
													}
												}
											}
										}
									}
									JOINT RightHandIndex1
									{
										OFFSET -0.086761 -2.345276 10.030899
										CHANNELS 6 Xposition Yposition Zposition Zrotation Yrotation Xrotation
										JOINT RightHandIndex2
										{
											OFFSET 0.000000 0.000000 4.061096
											CHANNELS 6 Xposition Yposition Zposition Zrotation Yrotation Xrotation
											JOINT RightHandIndex3
											{
												OFFSET 0.000000 0.000000 3.248871
												CHANNELS 6 Xposition Yposition Zposition Zrotation Yrotation Xrotation
												JOINT RightHandIndex4
												{
													OFFSET 0.000000 0.000000 2.639709
													CHANNELS 6 Xposition Yposition Zposition Zrotation Yrotation Xrotation
													End Site
													{
														OFFSET 0.000000 0.000000 0.100006
													}
												}
											}
										}
									}
									JOINT RightHandMiddle1
									{
										OFFSET 0.104095 -0.006775 9.502945
										CHANNELS 6 Xposition Yposition Zposition Zrotation Yrotation Xrotation
										JOINT RightHandMiddle2
										{
											OFFSET 0.000000 0.000000 4.568726
											CHANNELS 6 Xposition Yposition Zposition Zrotation Yrotation Xrotation
											JOINT RightHandMiddle3
											{
												OFFSET 0.000000 0.000000 3.654984
												CHANNELS 6 Xposition Yposition Zposition Zrotation Yrotation Xrotation
												JOINT RightHandMiddle4
												{
													OFFSET 0.000000 0.000000 2.741241
													CHANNELS 6 Xposition Yposition Zposition Zrotation Yrotation Xrotation
													End Site
													{
														OFFSET 0.000000 0.000000 0.100006
													}
												}
											}
										}
									}
									JOINT RightHandRing1
									{
										OFFSET 0.086761 2.267456 8.921707
										CHANNELS 6 Xposition Yposition Zposition Zrotation Yrotation Xrotation
										JOINT RightHandRing2
										{
											OFFSET 0.000000 0.000000 4.061096
											CHANNELS 6 Xposition Yposition Zposition Zrotation Yrotation Xrotation
											JOINT RightHandRing3
											{
												OFFSET 0.000000 0.000000 3.654984
												CHANNELS 6 Xposition Yposition Zposition Zrotation Yrotation Xrotation
												JOINT RightHandRing4
												{
													OFFSET 0.000000 0.000000 2.741241
													CHANNELS 6 Xposition Yposition Zposition Zrotation Yrotation Xrotation
													End Site
													{
														OFFSET 0.000000 0.000000 0.100006
													}
												}
											}
										}
									}
									JOINT RightHandPinky1
									{
										OFFSET -0.173492 4.467224 7.976990
										CHANNELS 6 Xposition Yposition Zposition Zrotation Yrotation Xrotation
										JOINT RightHandPinky2
										{
											OFFSET 0.000000 0.000000 3.350403
											CHANNELS 6 Xposition Yposition Zposition Zrotation Yrotation Xrotation
											JOINT RightHandPinky3
											{
												OFFSET 0.000000 0.000000 2.842758
												CHANNELS 6 Xposition Yposition Zposition Zrotation Yrotation Xrotation
												JOINT RightHandPinky4
												{
													OFFSET 0.000000 0.000000 2.639709
													CHANNELS 6 Xposition Yposition Zposition Zrotation Yrotation Xrotation
													End Site
													{
														OFFSET 0.000000 0.000000 0.100006
													}
												}
											}
										}
									}
									JOINT RightForeArmEnd
									{
										OFFSET 0.000000 0.000000 0.000000
										CHANNELS 6 Xposition Yposition Zposition Zrotation Yrotation Xrotation
										End Site
										{
											OFFSET 0.000000 0.000000 0.100006
										}
									}
								}
								JOINT RightArmEnd
								{
									OFFSET 0.000000 0.000000 0.000000
									CHANNELS 6 Xposition Yposition Zposition Zrotation Yrotation Xrotation
									End Site
									{
										OFFSET 0.000000 0.000000 0.100006
									}
								}
							}
						}
					}
					JOINT LeftShoulder
					{
						OFFSET 2.625397 0.000000 11.175217
						CHANNELS 6 Xposition Yposition Zposition Zrotation Yrotation Xrotation
						JOINT LeftArm
						{
							OFFSET 0.000000 0.000000 10.813629
							CHANNELS 6 Xposition Yposition Zposition Zrotation Yrotation Xrotation
							JOINT LeftForeArm
							{
								OFFSET 0.000000 0.000000 28.724777
								CHANNELS 6 Xposition Yposition Zposition Zrotation Yrotation Xrotation
								JOINT LeftHand
								{
									OFFSET 0.644379 0.328857 25.716171
									CHANNELS 6 Xposition Yposition Zposition Zrotation Yrotation Xrotation
									JOINT LeftHandThumb1
									{
										OFFSET 2.867310 -2.944275 3.959564
										CHANNELS 6 Xposition Yposition Zposition Zrotation Yrotation Xrotation
										JOINT LeftHandThumb2
										{
											OFFSET 0.000000 0.000000 3.350403
											CHANNELS 6 Xposition Yposition Zposition Zrotation Yrotation Xrotation
											JOINT LeftHandThumb3
											{
												OFFSET 0.000000 0.000000 3.756516
												CHANNELS 6 Xposition Yposition Zposition Zrotation Yrotation Xrotation
												JOINT LeftHandThumb4
												{
													OFFSET 0.000000 0.000000 3.100006
													CHANNELS 6 Xposition Yposition Zposition Zrotation Yrotation Xrotation
													End Site
													{
														OFFSET 0.000000 0.000000 0.100006
													}
												}
											}
										}
									}
									JOINT LeftHandIndex1
									{
										OFFSET 0.086761 -2.345276 10.030899
										CHANNELS 6 Xposition Yposition Zposition Zrotation Yrotation Xrotation
										JOINT LeftHandIndex2
										{
											OFFSET 0.000000 0.000000 4.061096
											CHANNELS 6 Xposition Yposition Zposition Zrotation Yrotation Xrotation
											JOINT LeftHandIndex3
											{
												OFFSET 0.000000 0.000000 3.248871
												CHANNELS 6 Xposition Yposition Zposition Zrotation Yrotation Xrotation
												JOINT LeftHandIndex4
												{
													OFFSET 0.000000 0.000000 2.639709
													CHANNELS 6 Xposition Yposition Zposition Zrotation Yrotation Xrotation
													End Site
													{
														OFFSET 0.000000 0.000000 0.100006
													}
												}
											}
										}
									}
									JOINT LeftHandMiddle1
									{
										OFFSET -0.104095 -0.006775 9.502945
										CHANNELS 6 Xposition Yposition Zposition Zrotation Yrotation Xrotation
										JOINT LeftHandMiddle2
										{
											OFFSET 0.000000 0.000000 4.568726
											CHANNELS 6 Xposition Yposition Zposition Zrotation Yrotation Xrotation
											JOINT LeftHandMiddle3
											{
												OFFSET 0.000000 0.000000 3.654984
												CHANNELS 6 Xposition Yposition Zposition Zrotation Yrotation Xrotation
												JOINT LeftHandMiddle4
												{
													OFFSET 0.000000 0.000000 2.741241
													CHANNELS 6 Xposition Yposition Zposition Zrotation Yrotation Xrotation
													End Site
													{
														OFFSET 0.000000 0.000000 0.100006
													}
												}
											}
										}
									}
									JOINT LeftHandRing1
									{
										OFFSET -0.086761 2.267456 8.921707
										CHANNELS 6 Xposition Yposition Zposition Zrotation Yrotation Xrotation
										JOINT LeftHandRing2
										{
											OFFSET 0.000000 0.000000 4.061096
											CHANNELS 6 Xposition Yposition Zposition Zrotation Yrotation Xrotation
											JOINT LeftHandRing3
											{
												OFFSET 0.000000 0.000000 3.654984
												CHANNELS 6 Xposition Yposition Zposition Zrotation Yrotation Xrotation
												JOINT LeftHandRing4
												{
													OFFSET 0.000000 0.000000 2.741241
													CHANNELS 6 Xposition Yposition Zposition Zrotation Yrotation Xrotation
													End Site
													{
														OFFSET 0.000000 0.000000 0.100006
													}
												}
											}
										}
									}
									JOINT LeftHandPinky1
									{
										OFFSET 0.173492 4.467224 7.976990
										CHANNELS 6 Xposition Yposition Zposition Zrotation Yrotation Xrotation
										JOINT LeftHandPinky2
										{
											OFFSET 0.000000 0.000000 3.350403
											CHANNELS 6 Xposition Yposition Zposition Zrotation Yrotation Xrotation
											JOINT LeftHandPinky3
											{
												OFFSET 0.000000 0.000000 2.842758
												CHANNELS 6 Xposition Yposition Zposition Zrotation Yrotation Xrotation
												JOINT LeftHandPinky4
												{
													OFFSET 0.000000 0.000000 2.639709
													CHANNELS 6 Xposition Yposition Zposition Zrotation Yrotation Xrotation
													End Site
													{
														OFFSET 0.000000 0.000000 0.100006
													}
												}
											}
										}
									}
									JOINT LeftForeArmEnd
									{
										OFFSET 0.000000 0.000000 0.000000
										CHANNELS 6 Xposition Yposition Zposition Zrotation Yrotation Xrotation
										End Site
										{
											OFFSET 0.000000 0.000000 0.100006
										}
									}
								}
								JOINT LeftArmEnd
								{
									OFFSET 0.000000 0.000000 0.000000
									CHANNELS 6 Xposition Yposition Zposition Zrotation Yrotation Xrotation
									End Site
									{
										OFFSET 0.000000 0.000000 0.100006
									}
								}
							}
						}
					}
				}
			}
		}
	}
	JOINT RightUpLeg
	{
		OFFSET -11.289948 0.000000 0.000000
		CHANNELS 6 Xposition Yposition Zposition Zrotation Yrotation Xrotation
		JOINT RightLeg
		{
			OFFSET 0.000000 0.000000 -38.200329
			CHANNELS 6 Xposition Yposition Zposition Zrotation Yrotation Xrotation
			JOINT RightFoot
			{
				OFFSET 0.000000 0.000000 -39.900856
				CHANNELS 6 Xposition Yposition Zposition Zrotation Yrotation Xrotation
				JOINT RightToeBase
				{
					OFFSET 0.000000 -15.261658 0.000002
					CHANNELS 6 Xposition Yposition Zposition Zrotation Yrotation Xrotation
					JOINT RightToeBaseEnd
					{
						OFFSET 0.000000 -7.370728 0.000000
						CHANNELS 6 Xposition Yposition Zposition Zrotation Yrotation Xrotation
						End Site
						{
							OFFSET 0.000000 0.000000 0.100000
						}
					}
				}
				JOINT RightLegEnd
				{
					OFFSET 0.000000 0.000000 0.000000
					CHANNELS 6 Xposition Yposition Zposition Zrotation Yrotation Xrotation
					End Site
					{
						OFFSET 0.000000 0.000000 0.100000
					}
				}
			}
			JOINT RightUpLegEnd
			{
				OFFSET 0.000000 0.000000 0.000000
				CHANNELS 6 Xposition Yposition Zposition Zrotation Yrotation Xrotation
				End Site
				{
					OFFSET 0.000000 0.000000 0.099998
				}
			}
		}
	}
	JOINT LeftUpLeg
	{
		OFFSET 11.315674 0.000000 0.000000
		CHANNELS 6 Xposition Yposition Zposition Zrotation Yrotation Xrotation
		JOINT LeftLeg
		{
			OFFSET 0.000000 0.000000 -38.200329
			CHANNELS 6 Xposition Yposition Zposition Zrotation Yrotation Xrotation
			JOINT LeftFoot
			{
				OFFSET 0.000000 0.000000 -39.900856
				CHANNELS 6 Xposition Yposition Zposition Zrotation Yrotation Xrotation
				JOINT LeftToeBase
				{
					OFFSET 0.000000 -15.261658 0.000002
					CHANNELS 6 Xposition Yposition Zposition Zrotation Yrotation Xrotation
					JOINT LeftToeBaseEnd
					{
						OFFSET 0.000000 -7.539978 0.000000
						CHANNELS 6 Xposition Yposition Zposition Zrotation Yrotation Xrotation
						End Site
						{
							OFFSET 0.000000 0.000000 0.100000
						}
					}
				}
				JOINT LeftLegEnd
				{
					OFFSET 0.000000 0.000000 0.000000
					CHANNELS 6 Xposition Yposition Zposition Zrotation Yrotation Xrotation
					End Site
					{
						OFFSET 0.000000 0.000000 0.100000
					}
				}
			}
			JOINT LeftUpLegEnd
			{
				OFFSET 0.000000 0.000000 0.000000
				CHANNELS 6 Xposition Yposition Zposition Zrotation Yrotation Xrotation
				End Site
				{
					OFFSET 0.000000 0.000000 0.099998
				}
			}
		}
	}
}
MOTION
Frames: 2
Frame Time: 0.016667
-22.353729 -11.753357 89.024933 11.525849 -0.020517 -3.361310 0.000001 2.080084 8.814240 0.108128 -0.776865 6.236112 0.000014 -0.000028 8.844139 -0.107625 0.549429 3.076221 -0.000002 -0.000026 11.682281 -1.635490 0.669959 7.810327 -0.000009 0.000030 11.746688 -0.657097 0.758243 9.438533 -0.000007 -0.000012 17.658258 0.916019 -6.605718 2.602959 -0.000042 0.000012 5.101489 3.125887 -1.696771 -2.789905 0.000001 0.000021 5.101524 -0.478963 0.774812 -9.355541 0.000011 -0.000004 11.655087 0.000001 0.000001 -0.000002 -2.625397 0.000027 11.175219 15.884288 -70.699725 0.242496 0.000000 0.000026 10.434685 -72.102673 -16.439784 33.479531 -0.000009 0.000000 29.628439 9.644864 1.165462 86.466438 -0.000031 0.000077 22.857567 -33.375142 -15.091603 10.430660 -2.867323 -2.944260 3.959564 32.544567 -26.594173 38.430899 -0.000008 0.000015 3.350342 -33.283710 10.408503 -56.106370 -0.000015 -0.000008 3.756516 -22.156813 10.832773 -38.322839 0.000006 0.000008 3.147333 -0.000000 -0.000000 0.000002 -0.086760 -2.345269 10.030956 -93.683489 -71.462514 93.674637 -0.000011 -0.000013 4.061104 -9.174435 -62.716313 15.812055 0.000000 -0.000004 3.248878 -9.674487 -62.716306 15.812091 0.000014 0.000004 2.639703 -0.000002 -0.000002 -0.000001 0.104092 -0.006790 9.502922 -67.270683 -75.394989 69.846819 -0.000002 0.000018 4.568726 -2.339657 -59.044007 5.012439 0.000008 -0.000010 3.654993 -2.839743 -59.044021 5.012543 0.000007 -0.000002 2.741245 -0.000000 -0.000003 -0.000000 0.086750 2.267485 8.921719 -25.687674 -77.625503 32.339423 -0.000008 0.000046 4.061108 1.570769 -54.742375 -4.963365 -0.000010 0.000020 3.654991 2.570729 -54.742313 -4.963306 -0.000026 -0.000008 2.741244 -0.000001 -0.000001 0.000001 -0.173477 4.467213 7.976958 10.886424 -71.775125 0.323373 0.000015 -0.000020 3.350403 3.491769 -47.766658 -12.363930 0.000042 0.000055 2.842773 5.491806 -47.766648 -12.363973 0.000008 0.000009 2.639697 -0.000001 0.000001 0.000001 0.000007 -0.000006 -0.000004 0.000000 -0.000001 -0.000000 -0.000004 0.000003 -0.000006 0.000000 -0.000001 -0.000001 2.625397 -0.000008 11.175196 -14.857174 67.549034 -0.113269 0.000015 0.000010 10.813622 77.984320 19.150300 34.020018 -0.000058 -0.000019 28.724689 -5.981382 -0.348619 93.002342 0.644384 0.328814 25.716160 37.093818 6.460857 4.735500 2.867301 -2.944336 3.959503 -33.697862 29.714516 34.261865 -0.000008 -0.000015 3.350430 39.704095 -8.547554 -66.611925 -0.000061 -0.000008 3.756516 26.821820 -11.069363 -45.766243 -0.000028 -0.000005 3.100004 -0.000001 -0.000000 0.000000 0.086761 -2.345292 10.030895 -4.092862 106.619000 -15.101541 -0.000015 -0.000002 4.061134 -20.954115 73.558924 -28.441121 0.000042 0.000015 3.248947 -21.454068 73.558863 -28.441046 -0.000038 -0.000008 2.639724 0.000001 0.000002 -0.000000 -0.104084 -0.006798 9.502937 154.280081 75.482019 149.750846 0.000025 -0.000049 4.568760 -6.270611 72.037500 -9.302900 0.000038 -0.000041 3.655018 -6.770697 72.037466 -9.302990 -0.000035 0.000016 2.741257 -0.000003 0.000000 0.000000 -0.086720 2.267463 8.921711 131.687345 70.766736 134.629749 0.000008 -0.000028 4.061123 6.743787 71.754163 10.691833 0.000042 -0.000040 3.655006 7.743747 71.754088 10.691796 -0.000029 -0.000016 2.741268 0.000002 -0.000000 0.000000 0.173553 4.467171 7.976971 104.271888 66.586018 116.876353 -0.000031 -0.000019 3.350441 15.456580 66.394029 26.410070 -0.000015 -0.000008 2.842781 17.456543 66.393988 26.409980 -0.000017 0.000005 2.639701 -0.000001 -0.000001 0.000000 -0.000024 0.000008 -0.000033 -0.000001 -0.000001 0.000001 -0.000001 0.000009 -0.000019 -0.000001 -0.000000 0.000000 -11.289920 0.000068 -0.000013 -12.935045 0.060212 2.209180 0.000026 0.000043 -38.200302 -0.585665 0.078396 7.657020 -0.000005 -0.000087 -39.900856 -9.017744 2.191654 20.236344 0.000001 -15.261692 0.000036 0.986034 0.698249 -19.385002 0.000008 -7.370667 0.000001 0.000000 0.000000 0.000001 -0.000004 0.000060 0.000000 0.000000 0.000000 0.000001 0.000030 -0.000000 -0.000007 0.000000 0.000000 -0.000000 11.315664 0.000007 -0.000001 1.579270 -0.781251 -3.500905 -0.000027 -0.000001 -38.200340 0.213361 -0.055596 14.822716 0.000010 0.000029 -39.900841 15.733228 -1.649428 20.350199 0.000041 -15.261699 0.000011 -0.307780 -1.045934 -20.538244 -0.000001 -7.539991 -0.000000 0.000002 0.000000 0.000000 -0.000000 -0.000008 -0.000000 0.000001 0.000000 0.000002 -0.000001 0.000053 -0.000005 0.000001 0.000000 0.000000 
-22.830902 -11.490051 88.898109 11.458438 -0.095314 -2.993383 0.000004 2.080076 8.814238 0.102487 -0.881488 6.524043 0.000011 0.000010 8.844145 -0.133453 0.473617 3.323336 0.000002 0.000030 11.682281 -1.551946 0.708075 8.194957 0.000008 0.000067 11.746693 -0.589906 0.825768 9.668050 -0.000015 0.000009 17.658253 1.099137 -6.450752 1.871654 -0.000008 -0.000008 5.101523 3.433870 -1.790466 -3.224781 0.000013 -0.000021 5.101505 -0.472915 0.747614 -9.166887 0.000006 -0.000003 11.655056 0.000000 0.000000 -0.000001 -2.625404 0.000021 11.175214 16.124875 -71.360136 0.249806 0.000023 0.000048 10.434708 -73.626734 -16.155851 34.324262 0.000005 0.000011 29.628445 9.733326 1.204934 88.447781 -0.000008 0.000052 22.857567 -33.527179 -15.268444 11.389650 -2.867323 -2.944229 3.959534 32.603898 -26.788472 38.171151 0.000031 0.000000 3.350426 -33.695215 10.326619 -56.770234 0.000000 0.000000 3.756508 -22.446976 10.864976 -38.787026 0.000010 -0.000009 3.147333 0.000001 0.000001 -0.000001 -0.086770 -2.345256 10.030886 -98.799479 -71.284704 98.324186 -0.000019 0.000023 4.061089 -9.859954 -63.778599 16.579692 0.000000 0.000015 3.248848 -10.359871 -63.778592 16.579637 0.000005 0.000005 2.639690 -0.000001 -0.000001 -0.000000 0.104088 -0.006767 9.502934 -73.423803 -75.930824 75.648641 0.000011 0.000025 4.568724 -2.537401 -60.159015 5.241708 0.000017 0.000021 3.654951 -3.037428 -60.159015 5.241718 0.000010 -0.000008 2.741231 0.000001 -0.000001 -0.000003 0.086769 2.267448 8.921715 -29.715342 -79.092498 36.107532 0.000002 0.000010 4.061081 1.753792 -55.914927 -5.185882 0.000016 0.000022 3.654966 2.753818 -55.914930 -5.185925 0.000013 0.000003 2.741239 -0.000000 -0.000001 -0.000002 -0.173485 4.467224 7.976998 11.615379 -73.439779 -0.464508 -0.000019 0.000018 3.350418 3.865728 -48.877865 -12.864627 0.000027 0.000000 2.842766 5.865718 -48.877892 -12.864598 0.000003 -0.000017 2.639705 0.000002 0.000001 -0.000000 -0.000017 0.000008 -0.000012 -0.000001 0.000001 0.000003 0.000008 0.000007 -0.000027 -0.000000 0.000000 -0.000002 2.625389 -0.000027 11.175211 -14.828590 68.044803 -0.095889 -0.000004 -0.000004 10.813614 79.878154 18.391068 35.860973 -0.000024 -0.000023 28.724726 -6.092353 -0.357078 93.458496 0.644325 0.328828 25.716183 37.699267 6.308466 5.162830 2.867248 -2.944260 3.959503 -33.697858 29.714519 34.261861 -0.000023 0.000015 3.350430 39.704095 -8.547551 -66.611946 -0.000023 -0.000031 3.756500 26.821806 -11.069379 -45.766232 -0.000044 0.000009 3.100012 -0.000001 -0.000001 0.000002 0.086792 -2.345222 10.030922 -3.937217 107.044842 -15.263224 0.000000 -0.000006 4.061119 -21.510984 73.844003 -29.021289 0.000019 0.000000 3.248970 -22.010978 73.843962 -29.021279 -0.000040 0.000006 2.639726 -0.000000 0.000001 0.000000 -0.104141 -0.006792 9.502975 155.198126 75.017750 150.303736 0.000078 -0.000066 4.568771 -6.472523 72.409356 -9.514277 0.000025 -0.000074 3.654997 -6.972540 72.409410 -9.514396 -0.000070 -0.000027 2.741235 -0.000005 0.000000 -0.000001 -0.086765 2.267425 8.921734 133.402720 70.251740 136.110125 0.000008 0.000018 4.061123 7.066403 72.273421 11.031029 0.000008 0.000008 3.654999 8.066445 72.273421 11.031070 -0.000051 -0.000002 2.741266 0.000001 -0.000002 -0.000000 0.173485 4.467171 7.976990 106.501685 66.343574 119.232727 -0.000046 -0.000023 3.350456 16.215655 66.988037 27.236587 0.000000 -0.000008 2.842834 18.215664 66.988071 27.236605 -0.000021 0.000000 2.639703 -0.000001 0.000002 -0.000001 -0.000029 0.000014 -0.000019 -0.000002 -0.000000 0.000000 -0.000005 -0.000010 0.000016 -0.000001 0.000000 -0.000000 -11.289928 0.000057 -0.000011 -13.217834 -0.276010 1.466151 0.000035 0.000042 -38.200325 -0.496612 0.070507 8.080664 0.000009 -0.000069 -39.900860 -8.760892 2.659878 19.606849 -0.000003 -15.261728 0.000021 0.978587 0.575474 -18.988558 0.000004 -7.370667 -0.000000 0.000000 0.000000 0.000001 -0.000008 -0.000002 0.000001 0.000000 0.000000 0.000001 0.000030 0.000061 0.000002 0.000000 0.000000 0.000000 11.315659 -0.000050 -0.000013 1.408264 -0.929798 -4.427982 -0.000020 0.000109 -38.200314 0.184560 -0.051226 15.512558 -0.000033 -0.000025 -39.900837 15.929704 -1.598569 19.787956 0.000016 -15.261707 0.000011 -0.345986 -0.955691 -20.319657 -0.000012 -7.539999 -0.000000 0.000004 0.000000 0.000000 0.000014 0.000050 0.000001 0.000002 0.000000 0.000002 -0.000002 0.000000 0.000000 -0.000000 -0.000000 -0.000000 
